<svg width="316" height="73" viewBox="0 0 316 73" fill="none" xmlns="http://www.w3.org/2000/svg">
    <path d="M72.13 36.065C72.13 28.932 70.0148 21.9592 66.0519 16.0284C62.0891 10.0975 56.4565 5.47497 49.8665 2.7453C43.2765 0.0156258 36.025 -0.698581 29.0291 0.692995C22.0332 2.08457 15.607 5.51943 10.5632 10.5632C5.51943 15.607 2.08457 22.0332 0.692995 29.0291C-0.698581 36.025 0.0156258 43.2765 2.7453 49.8665C5.47497 56.4565 10.0975 62.0891 16.0284 66.0519C21.9592 70.0148 28.932 72.13 36.065 72.13C45.6242 72.1109 54.7864 68.3051 61.5458 61.5458C68.3051 54.7864 72.1109 45.6242 72.13 36.065ZM37.5076 69.2087V43.278H47.6058C47.9884 43.278 48.3553 43.126 48.6259 42.8555C48.8964 42.5849 49.0484 42.218 49.0484 41.8354C49.0484 41.4528 48.8964 41.0859 48.6259 40.8153C48.3553 40.5448 47.9884 40.3928 47.6058 40.3928H37.5076V30.2946C37.5171 28.3845 38.2801 26.5554 39.6307 25.2047C40.9814 23.8541 42.8105 23.0911 44.7206 23.0816H50.491C50.8736 23.0816 51.2405 22.9296 51.5111 22.6591C51.7816 22.3885 51.9336 22.0216 51.9336 21.639C51.9336 21.2564 51.7816 20.8895 51.5111 20.6189C51.2405 20.3484 50.8736 20.1964 50.491 20.1964H44.7206C42.0453 20.2059 39.4823 21.2729 37.5906 23.1646C35.6989 25.0563 34.6319 27.6193 34.6224 30.2946V40.3928H24.5242C24.1416 40.3928 23.7747 40.5448 23.5041 40.8153C23.2336 41.0859 23.0816 41.4528 23.0816 41.8354C23.0816 42.218 23.2336 42.5849 23.5041 42.8555C23.7747 43.126 24.1416 43.278 24.5242 43.278H34.6224V69.2087C25.9557 68.8316 17.7814 65.0752 11.8507 58.7443C5.91992 52.4135 2.70443 44.0117 2.89306 35.3388C3.08169 26.666 6.65943 18.412 12.8598 12.345C19.0602 6.27794 27.3901 2.88053 36.065 2.88053C44.7399 2.88053 53.0698 6.27794 59.2702 12.345C65.4706 18.412 69.0483 26.666 69.237 35.3388C69.4256 44.0117 66.2101 52.4135 60.2793 58.7443C54.3486 65.0752 46.1743 68.8316 37.5076 69.2087Z" fill="#444444"/>
    <path d="M89.1705 49V22.8182H104.869V25.6307H92.3409V34.4773H103.693V37.2898H92.3409V49H89.1705ZM108.104 49H104.78L114.393 22.8182H117.666L127.28 49H123.956L116.132 26.9602H115.928L108.104 49ZM109.331 38.7727H122.729V41.5852H109.331V38.7727ZM151.196 31H148.025C147.838 30.0881 147.51 29.2869 147.041 28.5966C146.581 27.9062 146.018 27.3267 145.353 26.858C144.697 26.3807 143.968 26.0227 143.167 25.7841C142.366 25.5455 141.531 25.4261 140.662 25.4261C139.076 25.4261 137.64 25.8267 136.353 26.6278C135.075 27.429 134.056 28.6094 133.298 30.169C132.548 31.7287 132.173 33.642 132.173 35.9091C132.173 38.1761 132.548 40.0895 133.298 41.6491C134.056 43.2088 135.075 44.3892 136.353 45.1903C137.64 45.9915 139.076 46.392 140.662 46.392C141.531 46.392 142.366 46.2727 143.167 46.0341C143.968 45.7955 144.697 45.4418 145.353 44.973C146.018 44.4957 146.581 43.9119 147.041 43.2216C147.51 42.5227 147.838 41.7216 148.025 40.8182H151.196C150.957 42.1562 150.522 43.3537 149.892 44.4105C149.261 45.4673 148.477 46.3665 147.539 47.108C146.602 47.8409 145.549 48.3991 144.382 48.7827C143.223 49.1662 141.983 49.358 140.662 49.358C138.429 49.358 136.443 48.8125 134.704 47.7216C132.966 46.6307 131.598 45.0795 130.6 43.0682C129.603 41.0568 129.105 38.6705 129.105 35.9091C129.105 33.1477 129.603 30.7614 130.6 28.75C131.598 26.7386 132.966 25.1875 134.704 24.0966C136.443 23.0057 138.429 22.4602 140.662 22.4602C141.983 22.4602 143.223 22.652 144.382 23.0355C145.549 23.419 146.602 23.9815 147.539 24.723C148.477 25.456 149.261 26.3509 149.892 27.4077C150.522 28.456 150.957 29.6534 151.196 31ZM156.319 49V22.8182H172.12V25.6307H159.489V34.4773H171.302V37.2898H159.489V46.1875H172.325V49H156.319ZM177.835 49V22.8182H186.988C188.812 22.8182 190.316 23.1335 191.501 23.7642C192.685 24.3864 193.567 25.2259 194.147 26.2827C194.727 27.331 195.016 28.4943 195.016 29.7727C195.016 30.8977 194.816 31.8267 194.415 32.5597C194.023 33.2926 193.504 33.8722 192.856 34.2983C192.217 34.7244 191.522 35.0398 190.772 35.2443V35.5C191.573 35.5511 192.379 35.8324 193.188 36.3438C193.998 36.8551 194.675 37.5881 195.221 38.5426C195.766 39.4972 196.039 40.6648 196.039 42.0455C196.039 43.358 195.741 44.5384 195.144 45.5866C194.548 46.6349 193.606 47.4659 192.319 48.0795C191.032 48.6932 189.357 49 187.295 49H177.835ZM181.005 46.1875H187.295C189.366 46.1875 190.836 45.7869 191.705 44.9858C192.583 44.1761 193.022 43.196 193.022 42.0455C193.022 41.1591 192.796 40.3409 192.344 39.5909C191.893 38.8324 191.249 38.2273 190.414 37.7756C189.579 37.3153 188.59 37.0852 187.448 37.0852H181.005V46.1875ZM181.005 34.3239H186.886C187.84 34.3239 188.701 34.1364 189.468 33.7614C190.244 33.3864 190.857 32.858 191.309 32.1761C191.769 31.4943 191.999 30.6932 191.999 29.7727C191.999 28.6222 191.599 27.6463 190.798 26.8452C189.996 26.0355 188.727 25.6307 186.988 25.6307H181.005V34.3239ZM223.339 35.9091C223.339 38.6705 222.841 41.0568 221.844 43.0682C220.847 45.0795 219.479 46.6307 217.74 47.7216C216.001 48.8125 214.016 49.358 211.783 49.358C209.55 49.358 207.564 48.8125 205.825 47.7216C204.087 46.6307 202.719 45.0795 201.722 43.0682C200.724 41.0568 200.226 38.6705 200.226 35.9091C200.226 33.1477 200.724 30.7614 201.722 28.75C202.719 26.7386 204.087 25.1875 205.825 24.0966C207.564 23.0057 209.55 22.4602 211.783 22.4602C214.016 22.4602 216.001 23.0057 217.74 24.0966C219.479 25.1875 220.847 26.7386 221.844 28.75C222.841 30.7614 223.339 33.1477 223.339 35.9091ZM220.271 35.9091C220.271 33.642 219.892 31.7287 219.134 30.169C218.384 28.6094 217.365 27.429 216.078 26.6278C214.8 25.8267 213.368 25.4261 211.783 25.4261C210.197 25.4261 208.761 25.8267 207.474 26.6278C206.196 27.429 205.178 28.6094 204.419 30.169C203.669 31.7287 203.294 33.642 203.294 35.9091C203.294 38.1761 203.669 40.0895 204.419 41.6491C205.178 43.2088 206.196 44.3892 207.474 45.1903C208.761 45.9915 210.197 46.392 211.783 46.392C213.368 46.392 214.8 45.9915 216.078 45.1903C217.365 44.3892 218.384 43.2088 219.134 41.6491C219.892 40.0895 220.271 38.1761 220.271 35.9091ZM245.852 22.8182H249.023V40.1534C249.023 41.9432 248.601 43.5412 247.757 44.9474C246.922 46.3452 245.741 47.4489 244.216 48.2585C242.69 49.0597 240.901 49.4602 238.847 49.4602C236.793 49.4602 235.003 49.0597 233.477 48.2585C231.952 47.4489 230.767 46.3452 229.923 44.9474C229.088 43.5412 228.67 41.9432 228.67 40.1534V22.8182H231.841V39.8977C231.841 41.1761 232.122 42.3139 232.685 43.3111C233.247 44.2997 234.048 45.0795 235.088 45.6506C236.136 46.2131 237.389 46.4943 238.847 46.4943C240.304 46.4943 241.557 46.2131 242.605 45.6506C243.653 45.0795 244.455 44.2997 245.009 43.3111C245.571 42.3139 245.852 41.1761 245.852 39.8977V22.8182ZM255.354 49V22.8182H271.053V25.6307H258.525V34.4773H269.877V37.2898H258.525V49H255.354ZM276.483 49V22.8182H292.182V25.6307H279.653V34.4773H291.006V37.2898H279.653V49H276.483ZM297.612 49V22.8182H313.413V25.6307H300.782V34.4773H312.595V37.2898H300.782V46.1875H313.618V49H297.612Z" fill="#444444"/>
</svg>
