<svg width="24" height="24" viewBox="0 0 24 24" fill="none" xmlns="http://www.w3.org/2000/svg">
    <path d="M15 15L18.379 11.621C18.576 11.4241 18.8099 11.2679 19.0672 11.1613C19.3246 11.0548 19.6004 10.9999 19.879 11H20C20.5304 11 21.0391 11.2107 21.4142 11.5858C21.7893 11.9609 22 12.4696 22 13C22 13.5304 21.7893 14.0391 21.4142 14.4142C21.0391 14.7893 20.5304 15 20 15H4C3.46957 15 2.96086 14.7893 2.58579 14.4142C2.21071 14.0391 2 13.5304 2 13C2 12.4696 2.21071 11.9609 2.58579 11.5858C2.96086 11.2107 3.46957 11 4 11H8.515C10.106 11.0001 11.6319 11.6321 12.757 12.757L15 15ZM3 15H21V17C21 17.7956 20.6839 18.5587 20.1213 19.1213C19.5587 19.6839 18.7956 20 18 20H6C5.20435 20 4.44129 19.6839 3.87868 19.1213C3.31607 18.5587 3 17.7956 3 17V15Z" stroke="#444444" stroke-width="2" stroke-linecap="round" stroke-linejoin="round"/>
    <path d="M7.001 8H7M15.001 7H15M12.001 8H12M12 4C7.377 4 3.568 5.756 3.058 10C2.992 10.55 3.448 11 4 11H20C20.552 11 21.008 10.55 20.942 10C20.432 5.756 16.623 4 12 4Z" stroke="#444444" stroke-width="2" stroke-linecap="round" stroke-linejoin="round"/>
</svg>
