<svg width="24" height="24" viewBox="0 0 24 24" fill="none" xmlns="http://www.w3.org/2000/svg">
    <path d="M14.25 5.25V3.75C14.25 3.55108 14.171 3.36032 14.0303 3.21967C13.8897 3.07901 13.6989 3 13.5 3C13.3011 3 13.1103 3.07901 12.9697 3.21967C12.829 3.36032 12.75 3.55108 12.75 3.75V11.625H13.38C13.692 11.6247 13.9961 11.5272 14.25 11.346V5.25ZM16.62 9C16.308 9.00027 16.0039 9.09779 15.75 9.279V9H17.25V5.25C17.25 5.05108 17.171 4.86032 17.0303 4.71967C16.8897 4.57901 16.6989 4.5 16.5 4.5C16.3011 4.5 16.1103 4.57901 15.9697 4.71967C15.829 4.86032 15.75 5.05108 15.75 5.25V9H16.62ZM18.375 9C18.6951 9.00001 19.0112 9.07056 19.3009 9.20665C19.5906 9.34273 19.8468 9.54099 20.0511 9.78732C20.2555 10.0337 20.4031 10.322 20.4833 10.6318C20.5636 10.9417 20.5746 11.2654 20.5155 11.58L19.0935 19.164C18.9969 19.6798 18.7231 20.1457 18.3193 20.481C17.9156 20.8163 17.4073 20.9999 16.8825 21H7.1175C6.59269 20.9999 6.08443 20.8163 5.68067 20.481C5.27692 20.1457 5.00307 19.6798 4.9065 19.164L3.4845 11.58C3.42542 11.2654 3.43641 10.9417 3.51667 10.6318C3.59693 10.322 3.74449 10.0337 3.94886 9.78732C4.15323 9.54099 4.40938 9.34273 4.69909 9.20665C4.98879 9.07056 5.30493 9.00001 5.625 9H5.25V5.25C5.25008 4.70509 5.4479 4.17872 5.80673 3.76864C6.16556 3.35857 6.66102 3.09264 7.2011 3.02025C7.74117 2.94786 8.28917 3.07393 8.74333 3.37504C9.19748 3.67615 9.52693 4.13184 9.6705 4.6575C10.176 4.45637 10.7373 4.44571 11.25 4.6275V3.75C11.2501 3.20509 11.4479 2.67872 11.8067 2.26865C12.1656 1.85857 12.661 1.59264 13.2011 1.52025C13.7412 1.44786 14.2892 1.57393 14.7433 1.87504C15.1975 2.17615 15.5269 2.63184 15.6705 3.1575C16.0119 3.02211 16.3812 2.97234 16.7462 3.01252C17.1112 3.05269 17.4608 3.1816 17.7646 3.38799C18.0683 3.59437 18.3169 3.87196 18.4887 4.19653C18.6604 4.5211 18.7502 4.88278 18.75 5.25V9H18.375ZM15.7215 12C15.4405 12.351 15.0841 12.6343 14.6788 12.8291C14.2735 13.0238 13.8297 13.1249 13.38 13.125H10.62C10.1706 13.1247 9.72701 13.0235 9.32199 12.8288C8.91697 12.634 8.56087 12.3508 8.28 12H8.25V11.964C8.16387 11.8526 8.08568 11.7353 8.016 11.613L7.38 10.5H5.625C5.52518 10.4998 5.42654 10.5217 5.33614 10.564C5.24574 10.6063 5.1658 10.6681 5.10204 10.7449C5.03827 10.8217 4.99226 10.9116 4.96727 11.0083C4.94228 11.1049 4.93895 11.2059 4.9575 11.304L5.6505 15H18.3495L19.0425 11.304C19.0611 11.2059 19.0577 11.1049 19.0327 11.0083C19.0077 10.9116 18.9617 10.8217 18.898 10.7449C18.8342 10.6681 18.7543 10.6063 18.6639 10.564C18.5735 10.5217 18.4748 10.4998 18.375 10.5H16.62L15.984 11.613C15.9141 11.7352 15.8359 11.8524 15.75 11.964V12H15.7215ZM11.25 6.75C11.25 6.55108 11.171 6.36032 11.0303 6.21967C10.8897 6.07901 10.6989 6 10.5 6C10.3011 6 10.1103 6.07901 9.96967 6.21967C9.82902 6.36032 9.75 6.55108 9.75 6.75V11.346C10.0039 11.5272 10.308 11.6247 10.62 11.625H11.25V6.75ZM8.25 9V5.25C8.25 5.05108 8.17098 4.86032 8.03033 4.71967C7.88968 4.57901 7.69891 4.5 7.5 4.5C7.30109 4.5 7.11032 4.57901 6.96967 4.71967C6.82902 4.86032 6.75 5.05108 6.75 5.25V9H8.25H7.38C7.69196 9.00027 7.99607 9.09779 8.25 9.279V9ZM5.9325 16.5L6.3795 18.888C6.41172 19.0601 6.50315 19.2155 6.63794 19.3273C6.77274 19.4391 6.94239 19.5002 7.1175 19.5H16.8825C17.0576 19.5002 17.2273 19.4391 17.3621 19.3273C17.4969 19.2155 17.5883 19.0601 17.6205 18.888L18.0675 16.5H5.9325Z" fill="#444444"/>
</svg>
